<svg width="25" height="25" viewBox="0 0 25 25" fill="none" xmlns="http://www.w3.org/2000/svg">
<path d="M21.0938 8.59375H22.6562V11.7188H21.0938V8.59375Z" fill="white"/>
<path d="M2.34375 8.59375H3.90625V11.7188H2.34375V8.59375Z" fill="white"/>
<path d="M15.625 15.625H17.1875V17.1875H15.625V15.625Z" fill="white"/>
<path d="M7.8125 15.625H9.375V17.1875H7.8125V15.625Z" fill="white"/>
<path d="M16.4062 3.125H8.59375C7.55813 3.12624 6.56528 3.53819 5.83298 4.27048C5.10069 5.00278 4.68874 5.99563 4.6875 7.03125V17.9688C4.68791 18.383 4.85267 18.7802 5.1456 19.0731C5.43854 19.3661 5.83573 19.5308 6.25 19.5312V21.875H7.8125V19.5312H17.1875V21.875H18.75V19.5312C19.1642 19.5306 19.5613 19.3658 19.8542 19.0729C20.1471 18.78 20.3119 18.383 20.3125 17.9688V7.03125C20.3113 5.99563 19.8993 5.00278 19.167 4.27048C18.4347 3.53819 17.4419 3.12624 16.4062 3.125ZM18.75 7.8125V12.5H6.25V7.8125H18.75ZM8.59375 4.6875H16.4062C16.8894 4.68893 17.3603 4.8399 17.7542 5.11967C18.1481 5.39944 18.4457 5.79429 18.6062 6.25H6.39375C6.55426 5.79429 6.85191 5.39944 7.24582 5.11967C7.63974 4.8399 8.1106 4.68893 8.59375 4.6875ZM6.25 17.9688V14.0625H18.7508L18.7516 17.9688H6.25Z" fill="white"/>
</svg>
