<svg width="50" height="50" viewBox="0 0 50 50" fill="none" xmlns="http://www.w3.org/2000/svg">
<path d="M35.4351 50H14.5649C6.55738 50 0 43.4426 0 35.4351V14.5649C0 6.55738 6.55738 0 14.5649 0H35.4351C43.4426 0 50 6.55738 50 14.5649V35.4351C50 43.4426 43.4426 50 35.4351 50Z" fill="#355F8B"/>
<path d="M33.2596 39.0921H31.9986C31.4311 39.0921 30.9583 38.6192 30.9583 38.0518V36.7907C30.9583 36.2233 31.4311 35.7504 31.9986 35.7504H33.2596C33.8271 35.7504 34.3 36.2233 34.3 36.7907V38.0518C34.3 38.6192 33.8586 39.0921 33.2596 39.0921Z" fill="white"/>
<path d="M18.0012 39.0921H16.7402C16.1727 39.0921 15.6998 38.6192 15.6998 38.0518V36.7907C15.6998 36.2233 16.1727 35.7504 16.7402 35.7504H18.0012C18.5687 35.7504 19.0416 36.2233 19.0416 36.7907V38.0518C19.01 38.6192 18.5687 39.0921 18.0012 39.0921Z" fill="white"/>
<path d="M31.2422 30.7692H29.9811C29.4137 30.7692 28.9408 30.2963 28.9408 29.7289V28.4678C28.9408 27.9004 29.4137 27.4275 29.9811 27.4275H31.2422C31.8096 27.4275 32.2825 27.9004 32.2825 28.4678V29.7289C32.2825 30.2963 31.8096 30.7692 31.2422 30.7692Z" fill="white"/>
<path d="M19.9874 30.7692H18.7264C18.1589 30.7692 17.686 30.2963 17.686 29.7289V28.4678C17.686 27.9004 18.1589 27.4275 18.7264 27.4275H19.9874C20.5549 27.4275 21.0278 27.9004 21.0278 28.4678V29.7289C21.0278 30.2963 20.5549 30.7692 19.9874 30.7692Z" fill="white"/>
<path d="M12.8625 19.5775H9.58384C9.0479 19.5775 8.63806 19.1676 8.63806 18.6317C8.63806 18.0957 9.0479 17.6859 9.58384 17.6859H12.831C13.3669 17.6859 13.7768 18.0957 13.7768 18.6317C13.8083 19.1361 13.3669 19.5775 12.8625 19.5775Z" fill="white"/>
<path d="M40.3846 19.5775H37.1374C36.6015 19.5775 36.1917 19.1676 36.1917 18.6317C36.1917 18.0957 36.6015 17.6859 37.1374 17.6859H40.3846C40.9205 17.6859 41.3304 18.0957 41.3304 18.6317C41.3304 19.1361 40.9205 19.5775 40.3846 19.5775Z" fill="white"/>
<path d="M34.3001 36.6961H15.6998C13.6191 36.6961 11.9167 34.9937 11.9167 32.913V15.6368C11.9167 13.0202 14.029 10.908 16.6456 10.908H33.3543C35.971 10.908 38.0832 13.0202 38.0832 15.6368V22.7302C38.0832 23.2661 37.6734 23.6759 37.1374 23.6759H13.8083V32.913C13.8083 33.9534 14.6595 34.8046 15.6998 34.8046H34.3001C35.3405 34.8046 36.1917 33.9534 36.1917 32.913V27.1753C36.1917 26.6394 36.6015 26.2295 37.1374 26.2295C37.6734 26.2295 38.0832 26.6394 38.0832 27.1753V32.913C38.0832 34.9937 36.3808 36.6961 34.3001 36.6961ZM13.8083 21.7844H36.1917V15.6368C36.1917 14.0605 34.9306 12.7995 33.3543 12.7995H16.6456C15.0693 12.7995 13.8083 14.0605 13.8083 15.6368V21.7844Z" fill="white"/>
</svg>
