<svg width="24" height="24" viewBox="0 0 24 24" fill="none" xmlns="http://www.w3.org/2000/svg">
<path fill-rule="evenodd" clip-rule="evenodd" d="M13 3C13 2.44772 12.5523 2 12 2C11.4477 2 11 2.44772 11 3V5.07089C7.93431 5.5094 5.5094 7.93431 5.07089 11H3C2.44772 11 2 11.4477 2 12C2 12.5523 2.44772 13 3 13H5.07089C5.5094 16.0657 7.93431 18.4906 11 18.9291V21C11 21.5523 11.4477 22 12 22C12.5523 22 13 21.5523 13 21V18.9291C16.0657 18.4906 18.4906 16.0657 18.9291 13H21C21.5523 13 22 12.5523 22 12C22 11.4477 21.5523 11 21 11H18.9291C18.4906 7.93431 16.0657 5.5094 13 5.07089V3ZM17 12C17 14.7614 14.7614 17 12 17C9.23858 17 7 14.7614 7 12C7 9.23858 9.23858 7 12 7C14.7614 7 17 9.23858 17 12ZM12 15C13.6569 15 15 13.6569 15 12C15 10.3431 13.6569 9 12 9C10.3431 9 9 10.3431 9 12C9 13.6569 10.3431 15 12 15Z" fill="#262626"/>
</svg>
