<svg width="46" height="50" viewBox="0 0 46 50" fill="none" xmlns="http://www.w3.org/2000/svg">
<rect x="31.7404" y="4.83142" width="13.2865" height="13.2865" rx="3.94286" fill="#D08181"/>
<path d="M9.39493 15.0983H11.8107L13.0185 18.1179L15.4342 15.0983H17.246C19.1786 16.5477 19.6617 23.7546 19.6617 27.1769H6.9792C6.01291 24.278 8.18706 17.9166 9.39493 15.0983Z" fill="#283C43"/>
<circle cx="11.2069" cy="21.7413" r="1.20786" fill="white"/>
<path d="M14.0734 0C14.4223 0.0780843 14.7712 0.143155 15.1072 0.247267C17.2396 0.923998 18.6353 2.32952 19.3073 4.47683C19.3461 4.59396 19.3849 4.7241 19.4107 4.84123C19.695 4.9063 19.9664 4.94534 20.2249 5.03644C21.3104 5.40083 21.9566 6.44196 21.8403 7.62623C21.7369 8.7064 20.8323 9.6304 19.695 9.73451C19.3978 9.76054 19.2944 9.86465 19.2039 10.1249C18.3381 12.6497 15.9989 14.3285 13.3755 14.3285C10.765 14.3285 8.42585 12.6627 7.54707 10.1249C7.4566 9.86465 7.35322 9.74753 7.05598 9.7215C5.84118 9.60437 4.92362 8.58927 4.88485 7.36595C4.84608 6.2077 5.67318 5.15356 6.8492 4.94534C7.24983 4.88027 7.37906 4.69807 7.49537 4.33368C8.29662 1.99115 9.92496 0.585632 12.3546 0.0910984C12.445 0.0780843 12.5355 0.0260281 12.6259 0C13.1041 0 13.5823 0 14.0734 0ZM11.7213 4.8152C11.6567 4.91931 11.605 5.02342 11.5275 5.11452C10.4161 6.24675 9.07202 6.67621 7.52122 6.42894C7.09475 6.36387 6.69412 6.45497 6.53904 6.85841C6.43566 7.15773 6.44858 7.57418 6.57781 7.86049C6.75874 8.2379 7.15936 8.32899 7.58584 8.22488C8.34831 8.02967 8.59386 8.21187 8.77478 8.9797C8.86525 9.3571 8.96864 9.73451 9.12372 10.0859C9.98958 11.9859 11.9022 13.0401 14.0346 12.7928C15.9473 12.5716 17.5627 11.0359 17.9762 9.01874C18.1442 8.21187 18.4156 8.02967 19.1781 8.22488C19.6046 8.32899 19.9406 8.21187 20.199 7.8735C20.4317 7.54815 20.4446 7.19677 20.2378 6.87142C20.0052 6.49401 19.6692 6.37689 19.2298 6.44196C18.7516 6.52004 18.2735 6.61114 17.7953 6.62415C15.5983 6.70224 13.5694 6.19469 11.7213 4.8152ZM17.8728 5.10151C17.6144 3.08433 15.2752 1.34045 13.117 1.50963C11.0881 1.67881 8.92987 3.43571 8.99448 4.9063C9.78281 4.7241 10.3644 4.28162 10.8038 3.61791C11.3853 2.75898 11.6308 2.74597 12.4321 3.43571C13.9829 4.80219 15.8439 5.19261 17.8728 5.10151Z" fill="black"/>
<path d="M34.0789 41.1244C34.0789 41.3456 34.0789 41.5278 34.0789 41.7491C34.6734 41.8402 35.4617 41.5799 35.5522 42.5299C35.6039 43.0244 35.2808 43.1806 34.1048 43.3107C34.1048 43.7792 34.1048 44.2478 34.1048 44.7813C34.5441 44.7813 34.9835 44.7683 35.41 44.7813C35.9269 44.7943 36.263 45.0807 36.263 45.5101C36.2759 45.9656 35.9399 46.2649 35.3842 46.278C34.9835 46.291 34.5829 46.291 34.1694 46.291C34.1564 46.291 34.1435 46.304 34.0789 46.317C34.0789 47.0067 34.0789 47.7095 34.0789 48.4643C35.2679 48.4643 36.4568 48.4643 37.6716 48.4643C37.6716 38.5736 37.6716 28.696 37.6716 18.7532C37.5036 18.7402 37.3356 18.7272 37.1676 18.7272C36.2759 18.7142 35.3842 18.7532 34.5054 18.6882C32.8124 18.545 31.5588 17.2306 31.533 15.5257C31.4942 13.001 31.4942 10.4763 31.533 7.96458C31.5718 6.16865 32.9804 4.81518 34.7509 4.80217C36.7153 4.78916 38.6925 4.80217 40.6569 4.80217C41.2126 4.80217 41.5486 5.08848 41.5615 5.53096C41.5745 5.99946 41.2255 6.28577 40.6311 6.28577C38.7701 6.28577 36.922 6.28577 35.0611 6.28577C33.6783 6.28577 33.0192 6.9625 33.0192 8.35501C33.0192 10.6325 33.0192 12.9099 33.0192 15.1874C33.0192 16.5539 33.6783 17.2176 35.0482 17.2176C37.3356 17.2176 39.636 17.2176 41.9234 17.2176C43.1511 17.2176 43.8619 16.5148 43.8619 15.2915C43.8748 12.936 43.8619 10.5804 43.8619 8.21185C43.8619 7.69129 43.7197 7.2358 43.3708 6.81935C43.0219 6.41591 43.0606 5.98645 43.4096 5.70014C43.7456 5.42684 44.172 5.4789 44.521 5.86932C45.0638 6.46797 45.3481 7.18374 45.3481 8.00363C45.361 10.4893 45.3739 12.975 45.3481 15.4737C45.3352 17.1655 44.0945 18.532 42.4274 18.6751C41.5615 18.7532 40.6827 18.7142 39.8169 18.7272C39.623 18.7272 39.4292 18.7272 39.2095 18.7272C39.2095 28.6569 39.2095 38.5346 39.2095 48.5034C39.7264 48.5034 40.2563 48.5034 40.7861 48.5034C41.1997 48.5034 41.6261 48.4903 42.0397 48.5164C42.4532 48.5424 42.7376 48.8417 42.7505 49.2321C42.7505 49.6226 42.4791 49.9349 42.0655 49.987C41.9234 50 41.7812 50 41.6261 50C29.2973 50 16.9813 50 4.65241 50C4.5361 50 4.41979 50 4.3164 50C3.83824 49.9739 3.541 49.6616 3.55392 49.2321C3.56685 48.8157 3.85116 48.5294 4.3164 48.5164C5.23396 48.5033 6.15152 48.5164 7.082 48.5164C7.19831 48.5164 7.3017 48.5164 7.45678 48.5164C6.28075 40.0312 5.80259 31.546 6.22906 22.9828C6.00936 22.9828 5.6992 22.9958 5.37612 22.9828C4.27763 22.9438 3.17915 22.9438 2.09358 22.8527C1.69296 22.8136 1.27941 22.6314 0.917559 22.4362C0.297237 22.0978 0 21.5382 0 20.8355C0.0129234 19.6252 0.478164 18.6231 1.44742 17.8943C2.49421 17.1135 3.709 16.8011 4.96257 16.645C5.85428 16.5278 6.75892 16.4888 7.66355 16.4367C7.93494 16.4237 8.09002 16.3586 8.20633 16.0854C8.95589 14.2634 8.78788 14.5237 10.5972 14.4976C10.791 14.4976 10.9849 14.5107 11.1787 14.4976C11.6052 14.4716 11.9153 14.6408 12.148 15.0052C12.5227 15.5778 12.9104 16.1244 13.3498 16.7621C13.7375 16.2025 14.1252 15.6819 14.4483 15.1353C14.7456 14.6408 15.1333 14.4456 15.689 14.4846C16.1542 14.5107 16.6194 14.4976 17.0976 14.4846C17.5758 14.4716 17.9376 14.6538 18.0798 15.1093C18.2995 15.8511 18.8164 16.2806 19.4238 16.723C21.2977 18.0765 22.4479 19.9896 23.262 22.1109C24.5544 25.4555 24.7741 28.8651 23.7144 32.3269C23.5334 32.9125 23.1974 33.1598 22.7451 33.0296C22.267 32.8865 22.1119 32.4961 22.2928 31.8844C23.5981 27.3425 22.7839 23.178 20.0183 19.3779C19.8761 19.1827 19.7081 19.0135 19.4884 18.8573C19.6694 19.5991 19.8503 20.3409 20.0183 21.0827C20.6386 23.9328 20.7678 26.8219 20.6515 29.7241C20.4835 33.5632 20.3543 37.3894 20.0958 41.2285C19.9407 43.4799 19.566 45.7183 19.2946 47.9568C19.2687 48.1129 19.2558 48.2691 19.2429 48.4773C20.6386 48.4773 22.0085 48.4773 23.3913 48.4773C23.3913 47.7616 23.3913 47.0588 23.3913 46.291C22.926 46.291 22.4866 46.291 22.0343 46.291C21.4786 46.278 21.1685 45.9916 21.1814 45.5231C21.1943 45.0676 21.4916 44.8204 22.0343 44.8074C22.4866 44.7943 22.926 44.8074 23.4042 44.8074C23.4042 44.2868 23.4042 43.8183 23.4042 43.3368C22.8227 43.1936 21.8663 43.558 21.9051 42.5039C21.9439 41.5538 22.8097 41.8792 23.4042 41.7751C23.4042 41.5538 23.4042 41.3586 23.4042 41.1374C22.7968 41.0203 21.9309 41.3326 21.8922 40.3045C21.8663 39.7839 22.1894 39.6408 23.3784 39.5757C23.4947 39.1593 23.6497 38.7428 24.2055 38.7688C24.6707 38.7949 24.8775 39.1072 24.9292 39.5627C27.4492 39.5627 29.9693 39.5627 32.5023 39.5627C32.5927 39.1463 32.7607 38.7819 33.2647 38.7688C33.7946 38.7558 33.9755 39.1202 34.066 39.5627C34.6605 39.6408 35.41 39.4195 35.5263 40.3305C35.6168 40.786 35.3066 40.9552 34.0789 41.1244ZM7.61186 28.0062C7.19831 30.9084 8.36141 46.6293 9.12389 48.4643C9.48575 48.5684 9.60206 48.4383 9.6279 48.0609C9.71837 46.6554 9.82175 45.2368 9.95099 43.8313C10.0027 43.2847 10.3516 42.9984 10.8039 43.0505C11.2304 43.1025 11.4759 43.4669 11.4372 43.9875C11.3984 44.3909 11.3467 44.7943 11.3209 45.1978C11.2433 46.2779 11.1658 47.3581 11.0882 48.4513C12.6649 48.4513 14.1898 48.4513 15.7407 48.4513C15.7277 48.191 15.7148 47.9828 15.7019 47.7746C15.5597 46.1218 15.4822 44.456 15.2496 42.8162C14.7714 39.3284 14.2028 35.8407 13.66 32.3659C13.6341 32.2228 13.492 32.1056 13.4015 31.9885C13.324 32.1056 13.1948 32.2228 13.1689 32.3529C12.9104 33.6543 12.6649 34.9687 12.4452 36.2832C12.1997 37.7798 12.0058 39.2764 11.7861 40.773C11.7086 41.2675 11.3984 41.5278 10.9719 41.4888C10.5325 41.4497 10.2741 41.0853 10.3128 40.5778C10.3258 40.3696 10.3645 40.1613 10.4033 39.9531C10.8944 37.038 11.3855 34.1228 11.8766 31.2077C11.967 30.6871 12.2255 30.4919 12.7424 30.4789C13.156 30.4659 13.5825 30.4789 13.996 30.4789C14.5775 30.4919 14.8231 30.6871 14.9394 31.2467C16.1025 36.7907 16.8391 42.3867 17.1751 48.0479C17.201 48.4903 17.3432 48.5944 17.7696 48.4253C18.9198 41.684 19.1266 34.8646 19.2429 28.0192C15.3142 27.4987 11.463 27.4987 7.61186 28.0062ZM8.20633 21.291C8.67158 21.33 8.96881 21.343 9.25313 20.9266C9.91222 19.9635 11.3209 19.7813 12.0704 20.6533C12.6261 21.304 13.1431 21.9547 13.8668 22.4492C14.1898 22.6705 14.164 23.178 13.9055 23.4513C13.6083 23.7636 13.2594 23.8027 12.9104 23.5554C12.7554 23.4513 12.6003 23.3342 12.4581 23.2431C11.3596 24.3232 10.0673 24.3493 9.26605 23.3472C8.82665 22.7876 8.6328 22.7355 7.8574 22.9568C7.75402 24.102 7.63771 25.2863 7.5214 26.5226C11.4759 26.0411 15.34 26.0541 19.1912 26.4966C19.1912 26.1582 19.2041 25.8979 19.1912 25.6377C18.9715 22.4753 18.2995 19.4039 17.0847 16.4758C17.0071 16.2936 16.8133 16.0333 16.6841 16.0333C16.2834 16.0463 15.8182 15.799 15.508 16.3066C15.0557 17.0224 14.5646 17.7121 14.0865 18.3888C13.6729 18.9745 13.1301 18.9745 12.7166 18.3888C12.2901 17.7772 11.8766 17.1655 11.4501 16.5408C11.1012 16.0333 10.5713 15.8381 10.0156 16.0073C9.93806 16.0333 9.8476 16.1114 9.82175 16.1895C9.09805 17.8032 8.58111 19.495 8.20633 21.291ZM24.9679 48.4383C27.5397 48.4383 30.0468 48.4383 32.541 48.4383C32.541 47.6965 32.541 46.9807 32.541 46.304C29.9951 46.304 27.488 46.304 24.9679 46.304C24.9679 47.0328 24.9679 47.7355 24.9679 48.4383ZM7.49555 17.9073C7.05616 17.9333 6.65553 17.8943 6.26783 17.9724C5.19519 18.1676 4.12255 18.3628 3.07576 18.6621C2.39082 18.8573 1.87389 19.3519 1.64127 20.0677C1.35695 20.9266 1.53788 21.304 2.41667 21.356C3.73485 21.4341 5.05303 21.4081 6.37122 21.3821C6.48753 21.3821 6.66845 21.1738 6.70722 21.0437C6.96569 20.1197 7.19831 19.1957 7.44386 18.2717C7.4697 18.1676 7.4697 18.0635 7.49555 17.9073ZM24.9679 44.7423C27.5138 44.7423 30.0339 44.7423 32.541 44.7423C32.541 44.2347 32.541 43.7793 32.541 43.2977C30.008 43.2977 27.5009 43.2977 24.9679 43.2977C24.9679 43.7923 24.9679 44.2478 24.9679 44.7423ZM32.5539 41.0984C30.008 41.0984 27.5009 41.0984 24.9679 41.0984C24.9679 41.3326 24.9679 41.5278 24.9679 41.7491C27.5138 41.7491 30.021 41.7491 32.5539 41.7491C32.5539 41.5278 32.5539 41.3456 32.5539 41.0984ZM10.8039 22.7746C11.0236 22.4622 11.2562 22.28 11.2433 22.1239C11.2304 21.9547 11.0107 21.7074 10.8298 21.6554C10.5455 21.5773 10.3128 21.8115 10.3516 22.1109C10.3775 22.28 10.5713 22.4492 10.8039 22.7746Z" fill="black"/>
<path d="M12.1221 9.53929C12.1092 9.72149 12.1221 9.90369 12.0963 10.0729C12.0187 10.4763 11.7732 10.7106 11.3725 10.7236C10.9719 10.7236 10.6876 10.4893 10.6488 10.0859C10.5971 9.70848 10.5971 9.30504 10.6359 8.92763C10.6747 8.49817 10.959 8.2509 11.3855 8.26392C11.799 8.27693 12.0316 8.5242 12.0963 8.91462C12.1221 9.12284 12.0963 9.33107 12.0963 9.53929C12.1092 9.53929 12.1092 9.53929 12.1221 9.53929Z" fill="black"/>
<path d="M15.1592 9.52612C15.1592 9.70832 15.1721 9.8775 15.1592 10.0597C15.1075 10.4761 14.849 10.6974 14.4484 10.7104C14.0478 10.7234 13.7634 10.4892 13.7117 10.0857C13.6601 9.68229 13.6601 9.27885 13.7117 8.87542C13.7634 8.47198 14.0348 8.25074 14.4484 8.23773C14.8361 8.22472 15.1333 8.51103 15.1721 8.92748C15.185 9.1357 15.1592 9.33091 15.1592 9.52612Z" fill="black"/>
<path d="M38.5497 8.77759C39.3418 8.77759 39.9691 9.0054 40.4318 9.46102C40.8944 9.90963 41.1257 10.551 41.1257 11.3851V12.1422H37.4247C37.4387 12.5838 37.5684 12.9307 37.8137 13.1831C38.0661 13.4354 38.413 13.5616 38.8546 13.5616C39.2191 13.5616 39.5521 13.5265 39.8535 13.4564C40.1619 13.3793 40.4773 13.2637 40.7998 13.1095V14.3186C40.5124 14.4588 40.2145 14.5604 39.9061 14.6235C39.5976 14.6936 39.2226 14.7287 38.781 14.7287C38.2063 14.7287 37.6981 14.6235 37.2565 14.4132C36.8149 14.196 36.4679 13.8735 36.2155 13.4459C35.9632 13.0113 35.837 12.4611 35.837 11.7952C35.837 11.1293 35.9492 10.572 36.1735 10.1234C36.4048 9.67481 36.7237 9.33835 37.1303 9.11405C37.5368 8.88974 38.01 8.77759 38.5497 8.77759ZM38.5602 9.89211C38.2518 9.89211 37.9995 9.99024 37.8032 10.1865C37.6069 10.3828 37.4913 10.6877 37.4562 11.1012H39.6537C39.6467 10.7578 39.5521 10.4704 39.3698 10.2391C39.1946 10.0078 38.9247 9.89211 38.5602 9.89211Z" fill="black"/>
</svg>
